<svg id="Ebene_1" data-name="Ebene 1" xmlns="http://www.w3.org/2000/svg" xmlns:xlink="http://www.w3.org/1999/xlink" viewBox="0 0 231.76 183.69"><defs><style>.cls-1{fill:none;}.cls-2{clip-path:url(#clip-path);}.cls-3{fill:#181715;}.cls-4{fill:#fafafa;}</style><clipPath id="clip-path" transform="translate(15.86 -8.15)"><rect class="cls-1" x="-15.86" y="8.15" width="231.76" height="183.69"/></clipPath></defs><g class="cls-2"><path class="cls-3" d="M38.66,160.05a29,29,0,0,0,.66,6.5c3.63,15.83,15.56,25.28,31.91,25.28H91.05c30.21,0,61.45,0,92.17-.05a42.81,42.81,0,0,0,9-.95c12-2.55,22.19-13.88,23.23-25.8.43-4.91.45-10,.48-14.9v-2.3c0-4.31-1.29-7.94-3.83-10.49s-6.18-3.92-10.53-3.92H167.78V111c0-22.66,0-46.09,0-69.14a52.23,52.23,0,0,0-.4-6.06c-1.94-16.26-14.79-27.61-31.24-27.61H90c-23.22,0-46.8,0-70.08,0a81.94,81.94,0,0,0-8.31.46C-.64,9.89-12.75,20.81-14.81,32.5a99.09,99.09,0,0,0-1,16.21c0,1.14,0,2.27,0,3.4-.07,4.32,1.22,7.94,3.71,10.47s6.3,4,10.8,4h40V90.28c0,22.87,0,46.52,0,69.77" transform="translate(15.86 -8.15)"/><path class="cls-3" d="M205.52,143.28l-.11,2.56c-.08,2-.1,4.07-.12,6.06a86.84,86.84,0,0,1-.89,14c-1.46,8.51-10,15.18-19.45,15.18H92.07l2-3.64c4.11-7.48,4-15.35,4-23.68,0-2.66,0-5.4.07-8.13l.1-2.35Z" transform="translate(15.86 -8.15)"/><path class="cls-3" d="M38.53,53.19v2.46H-4.66V53.19c0-1.82-.08-3.7-.16-5.51a56.25,56.25,0,0,1,.4-12.63c1.79-9.64,11.34-16.57,22.24-16.14,9.76.39,19.37,8.77,20.56,17.94a70.71,70.71,0,0,1,.25,11.35c-.05,1.64-.1,3.33-.1,5" transform="translate(15.86 -8.15)"/><path class="cls-4" d="M136.51,18.91H39.8l3.89,4.14s.39.42.89,1.06A31.64,31.64,0,0,1,49.4,41.69c0,38.73,0,76.86,0,119.13a21,21,0,0,0,.57,4.9,20.11,20.11,0,0,0,9.36,12.55,20.46,20.46,0,0,0,10.4,2.89,19,19,0,0,0,5-.66c7.34-2,12.94-9.85,13-18.24,0-3.31,0-6.66,0-9.9,0-1.54,0-3.08,0-4.61,0-8.7,5.59-14.32,14.23-14.32h55V39.53a20.35,20.35,0,0,0-20.51-20.62" transform="translate(15.86 -8.15)"/><path class="cls-4" d="M120.88,181.08H92.07l2-3.64c4.11-7.48,4-15.35,4-23.68,0-2.66,0-5.4.07-8.13l.1-2.35H205.52l-.11,2.56c-.08,2-.1,4.07-.12,6.07a87.88,87.88,0,0,1-.89,14c-1.46,8.51-10,15.18-19.46,15.18Z" transform="translate(15.86 -8.15)"/><path class="cls-4" d="M38.38,36.85c-1.19-9.17-10.8-17.55-20.56-17.94-10.9-.43-20.45,6.5-22.24,16.14a56.25,56.25,0,0,0-.4,12.63c.08,1.81.16,3.69.16,5.51v2.46H38.53V53.19c0-1.66,0-3.35.1-5a70.71,70.71,0,0,0-.25-11.35" transform="translate(15.86 -8.15)"/></g></svg>