<svg id="Ebene_1" data-name="Ebene 1" xmlns="http://www.w3.org/2000/svg" xmlns:xlink="http://www.w3.org/1999/xlink" viewBox="0 0 29.94 68.88"><defs><style>.cls-1{fill:none;}.cls-2{fill:#00b1e3;}.cls-3{clip-path:url(#clip-path);}</style><clipPath id="clip-path" transform="translate(-76.11 -68.53)"><rect class="cls-1" x="76.11" y="68.53" width="29.94" height="68.88"/></clipPath></defs><rect class="cls-2" x="8.89" width="12" height="33.5"/><polygon class="cls-2" points="8.7 38.31 14.82 44.43 20.94 38.31 8.7 38.31"/><g class="cls-3"><path class="cls-2" d="M98.9,126H96l3.66,7.29v4.08h2.78v-4.08l3.66-7.29h-3L101,131Zm-9.39,2.11h1.74a1.59,1.59,0,0,1,1.17.41,1.6,1.6,0,0,1,.4,1.16,1.58,1.58,0,0,1-.4,1.15,1.55,1.55,0,0,1-1.17.41H89.51ZM93,137.4h2.93v-.12l-2.37-4.59a3.39,3.39,0,0,0,1.5-1.26,3.71,3.71,0,0,0,.48-2,3.05,3.05,0,0,0-1.14-2.54,5,5,0,0,0-3.16-.89H86.77V137.4h2.74v-4H91ZM85.62,126H76.11v2.11h3.35v9.26H82.2v-9.26h3.42Z" transform="translate(-76.11 -68.53)"/></g></svg>