<svg xmlns="http://www.w3.org/2000/svg" xmlns:xlink="http://www.w3.org/1999/xlink" viewBox="0 0 101 86.6"><defs><style>.cls-1{fill:#ff8f34;}.cls-2{clip-path:url(#clip-path);}.cls-3{fill:#00b1e3;}.cls-4{fill:#fff;}</style><clipPath id="clip-path" transform="translate(-50 -56.7)"><polygon class="cls-1" points="75 56.7 50 100 75 143.3 125 143.3 150 100 125 56.7 75 56.7"/></clipPath></defs><g id="form"><polygon class="cls-1" points="25 0 0 43.3 25 86.6 75 86.6 100 43.3 75 0 25 0"/><g class="cls-2"><polygon class="cls-3" points="27.34 3.33 1.27 48.48 14.58 78.49 74.93 78.49 101 33.34 82.58 3.33 27.34 3.33"/></g></g><g id="bookmarkManager"><path class="cls-4" d="M84.22,87.8a16.34,16.34,0,0,1,3.81.43,7.78,7.78,0,0,1,3,1.44,6.57,6.57,0,0,1,2,2.67,10.63,10.63,0,0,1,.7,4.11,8.69,8.69,0,0,1-1.26,4.76,6.38,6.38,0,0,1-3.79,2.7V104a6.64,6.64,0,0,1,4.45,2.44,8.6,8.6,0,0,1,1.63,5.5,14,14,0,0,1-.51,3.82,7.78,7.78,0,0,1-1.76,3.18,8.65,8.65,0,0,1-3.23,2.18,13.16,13.16,0,0,1-4.94.81H72.93V87.8Zm-2.63,14a6.6,6.6,0,0,0,4.1-1A4.19,4.19,0,0,0,87,97.31a4.34,4.34,0,0,0-1.17-3.44,5.62,5.62,0,0,0-3.7-1H79.67v8.94Zm.7,15a6.45,6.45,0,0,0,3.94-1.1c1-.73,1.5-2.08,1.5-4.06a6.46,6.46,0,0,0-.4-2.46,4.15,4.15,0,0,0-1.08-1.58,3.81,3.81,0,0,0-1.61-.83,8.32,8.32,0,0,0-2.06-.24H79.67v10.27Z" transform="translate(-50 -56.7)"/><path class="cls-4" d="M104.26,96.21v2.63h.1a7.48,7.48,0,0,1,2.74-2.53,8,8,0,0,1,3.63-.76,6.49,6.49,0,0,1,3.77,1,5.15,5.15,0,0,1,2,3.06h.09A5.86,5.86,0,0,1,119,96.57a7.43,7.43,0,0,1,4-1,5.61,5.61,0,0,1,4.75,2,9.2,9.2,0,0,1,1.53,5.71v18.69h-6.47V104a4.45,4.45,0,0,0-.58-2.49,2.19,2.19,0,0,0-2-.86,3.1,3.1,0,0,0-2.46,1,5,5,0,0,0-.91,3.35v16.92h-6.46V104a4.45,4.45,0,0,0-.59-2.49,2.19,2.19,0,0,0-1.94-.86,3.1,3.1,0,0,0-2.46,1,5,5,0,0,0-.92,3.35v16.92H98.08V96.21Z" transform="translate(-50 -56.7)"/><path class="cls-4" d="M73.25,72.81h4.91a6,6,0,0,1,2.35.42,4.35,4.35,0,0,1,1.63,1.14,4.69,4.69,0,0,1,.93,1.7,7.1,7.1,0,0,1,0,4.15,4.69,4.69,0,0,1-.93,1.7,4.35,4.35,0,0,1-1.63,1.14,6,6,0,0,1-2.35.42H73.25ZM75.32,82h2a5.52,5.52,0,0,0,2-.29,2.82,2.82,0,0,0,1.21-.8,2.71,2.71,0,0,0,.6-1.21,7.16,7.16,0,0,0,0-3,2.71,2.71,0,0,0-.6-1.21,2.82,2.82,0,0,0-1.21-.8,5.52,5.52,0,0,0-2-.29h-2Z" transform="translate(-50 -56.7)"/><path class="cls-4" d="M90.26,72.56a6,6,0,0,1,2.38.45,5.2,5.2,0,0,1,2.9,3,5.9,5.9,0,0,1,.39,2.15,6,6,0,0,1-.39,2.16,5.22,5.22,0,0,1-1.12,1.78,5.09,5.09,0,0,1-1.78,1.2,6.66,6.66,0,0,1-4.76,0,5.14,5.14,0,0,1-2.9-3,6,6,0,0,1-.39-2.16A5.9,5.9,0,0,1,85,76a5.22,5.22,0,0,1,1.12-1.78A5.35,5.35,0,0,1,87.88,73,6,6,0,0,1,90.26,72.56Zm0,1.52a3.59,3.59,0,0,0-1.63.35,3.07,3.07,0,0,0-1.12.92,3.85,3.85,0,0,0-.64,1.3,5.43,5.43,0,0,0,0,3A4,4,0,0,0,87.51,81a3,3,0,0,0,1.12.91,4,4,0,0,0,3.26,0A3,3,0,0,0,93,81a4,4,0,0,0,.64-1.31,5.43,5.43,0,0,0,0-3,3.85,3.85,0,0,0-.64-1.3,3,3,0,0,0-1.12-.92A3.57,3.57,0,0,0,90.26,74.08Z" transform="translate(-50 -56.7)"/><path class="cls-4" d="M105.81,76.2a4,4,0,0,0-.36-.85,2.56,2.56,0,0,0-.6-.67,2.64,2.64,0,0,0-.85-.44,3.92,3.92,0,0,0-1.14-.16,3.59,3.59,0,0,0-1.63.35,3.07,3.07,0,0,0-1.12.92,3.85,3.85,0,0,0-.64,1.3,5.43,5.43,0,0,0,0,3,4,4,0,0,0,.64,1.31,3,3,0,0,0,1.12.91,3.59,3.59,0,0,0,1.63.35,3.14,3.14,0,0,0,1.23-.22,2.58,2.58,0,0,0,.91-.6,3,3,0,0,0,.6-.88,4.36,4.36,0,0,0,.28-1.09h2a4.52,4.52,0,0,1-.45,1.74,4.32,4.32,0,0,1-1.06,1.37,4.78,4.78,0,0,1-1.56.89,5.86,5.86,0,0,1-2,.31,6.19,6.19,0,0,1-2.38-.44,5.14,5.14,0,0,1-2.9-3,6,6,0,0,1-.39-2.16A5.9,5.9,0,0,1,97.58,76a5.22,5.22,0,0,1,1.12-1.78A5.35,5.35,0,0,1,100.48,73a6,6,0,0,1,2.38-.45,6.73,6.73,0,0,1,1.88.25,5.12,5.12,0,0,1,1.55.71,4.07,4.07,0,0,1,1.08,1.15,3.52,3.52,0,0,1,.51,1.53Z" transform="translate(-50 -56.7)"/></g></svg>