<svg xmlns="http://www.w3.org/2000/svg" xmlns:xlink="http://www.w3.org/1999/xlink" viewBox="0 0 101 86.6"><defs><style>.cls-1{fill:#b900ca;}.cls-2{clip-path:url(#clip-path);}.cls-3{fill:#00b1e3;}.cls-4{fill:#fff;}</style><clipPath id="clip-path" transform="translate(-50 -56.7)"><polygon class="cls-1" points="75 56.7 50 100 75 143.3 125 143.3 150 100 125 56.7 75 56.7"/></clipPath></defs><g id="form"><polygon class="cls-1" points="25 0 0 43.3 25 86.6 75 86.6 100 43.3 75 0 25 0"/><g class="cls-2"><polygon class="cls-3" points="27.34 3.33 1.27 48.48 14.58 78.49 74.93 78.49 101 33.34 82.58 3.33 27.34 3.33"/></g></g><g id="picsCompiler"><path class="cls-4" d="M91.9,93.9a3.8,3.8,0,0,0-3.59-1.7,3.86,3.86,0,0,0-2.36.69,4.48,4.48,0,0,0-1.45,2.25,17.05,17.05,0,0,0-.75,4.06c-.14,1.68-.21,3.72-.21,6.14a54.84,54.84,0,0,0,.29,6.26,13.19,13.19,0,0,0,.9,3.71,3.47,3.47,0,0,0,1.54,1.77,4.89,4.89,0,0,0,2.15.45,5.49,5.49,0,0,0,1.88-.31A3.13,3.13,0,0,0,91.82,116a7.53,7.53,0,0,0,1-2.63,21.4,21.4,0,0,0,.38-4.47h7.64a27.73,27.73,0,0,1-.48,5.26,11.2,11.2,0,0,1-1.78,4.35,8.64,8.64,0,0,1-3.66,2.91,15.2,15.2,0,0,1-6.13,1.06A15.74,15.74,0,0,1,82,121.21a8.86,8.86,0,0,1-3.9-3.58A14.59,14.59,0,0,1,76.3,112a64.28,64.28,0,0,1,0-14.32,14.69,14.69,0,0,1,1.75-5.62A9.25,9.25,0,0,1,82,88.45a15,15,0,0,1,6.84-1.32,14.4,14.4,0,0,1,6.45,1.2,8.72,8.72,0,0,1,3.53,3,10,10,0,0,1,1.46,4,30.23,30.23,0,0,1,.29,4H92.88A11.35,11.35,0,0,0,91.9,93.9Z" transform="translate(-50 -56.7)"/><path class="cls-4" d="M104.6,103.24A10.71,10.71,0,0,1,106.51,99,8.36,8.36,0,0,1,110,96.43a13.88,13.88,0,0,1,5.28-.88,14.74,14.74,0,0,1,5.46.78,7.55,7.55,0,0,1,3.45,2.56,10.75,10.75,0,0,1,1.8,4.25,28.81,28.81,0,0,1,.53,5.93,26.08,26.08,0,0,1-.58,5.83,10.71,10.71,0,0,1-1.91,4.23,7.82,7.82,0,0,1-3.48,2.51,15,15,0,0,1-5.27.82,15.47,15.47,0,0,1-5.47-.75,7.27,7.27,0,0,1-3.45-2.48,10.49,10.49,0,0,1-1.8-4.26,28.78,28.78,0,0,1-.53-5.9A26.08,26.08,0,0,1,104.6,103.24Zm6.85,9.46a11.14,11.14,0,0,0,.5,2.87,4,4,0,0,0,1.19,1.87,3.23,3.23,0,0,0,2.13.67,3.08,3.08,0,0,0,3.07-2.11,20.08,20.08,0,0,0,.85-6.93,20.08,20.08,0,0,0-.85-6.93,3.07,3.07,0,0,0-3.07-2.1,3.18,3.18,0,0,0-2.13.67,4,4,0,0,0-1.19,1.86,11.22,11.22,0,0,0-.5,2.87c-.08,1.11-.11,2.33-.11,3.63S111.37,111.59,111.45,112.7Z" transform="translate(-50 -56.7)"/><path class="cls-4" d="M77.39,72.81h5.22a5.45,5.45,0,0,1,2.06.33A3.27,3.27,0,0,1,85.9,74,2.71,2.71,0,0,1,86.48,75a4,4,0,0,1,.16,1.07,3.86,3.86,0,0,1-.16,1.07,2.68,2.68,0,0,1-.58,1.07,3.14,3.14,0,0,1-1.23.81,5.45,5.45,0,0,1-2.06.33H79.46v4.09H77.39Zm2.07,5h3a2.94,2.94,0,0,0,.71-.09,2,2,0,0,0,.67-.29,1.53,1.53,0,0,0,.5-.54,1.74,1.74,0,0,0,.19-.84,2,2,0,0,0-.17-.87,1.4,1.4,0,0,0-.44-.54,1.65,1.65,0,0,0-.65-.28,3.84,3.84,0,0,0-.78-.07H79.46Z" transform="translate(-50 -56.7)"/><path class="cls-4" d="M88.45,72.81h2.07V83.48H88.45Z" transform="translate(-50 -56.7)"/><path class="cls-4" d="M101.05,76.2a3.59,3.59,0,0,0-.37-.85,2.36,2.36,0,0,0-.59-.67,2.69,2.69,0,0,0-.86-.44,3.8,3.8,0,0,0-1.13-.16,3.64,3.64,0,0,0-1.64.35,3,3,0,0,0-1.11.92,3.85,3.85,0,0,0-.64,1.3,5.43,5.43,0,0,0,0,3A4,4,0,0,0,95.35,81a3,3,0,0,0,1.11.91,3.64,3.64,0,0,0,1.64.35A3.09,3.09,0,0,0,99.32,82a2.62,2.62,0,0,0,.92-.6,2.78,2.78,0,0,0,.59-.88,3.65,3.65,0,0,0,.28-1.09h2a4.71,4.71,0,0,1-.46,1.74,4.29,4.29,0,0,1-1.05,1.37,4.78,4.78,0,0,1-1.56.89,5.9,5.9,0,0,1-2,.31,6.16,6.16,0,0,1-2.38-.44,5.09,5.09,0,0,1-1.78-1.2,5.22,5.22,0,0,1-1.12-1.78,6,6,0,0,1-.39-2.16A5.9,5.9,0,0,1,92.82,76a5.2,5.2,0,0,1,2.9-3,6,6,0,0,1,2.38-.45,6.65,6.65,0,0,1,1.87.25,5,5,0,0,1,1.55.71,4,4,0,0,1,1.09,1.15,3.8,3.8,0,0,1,.51,1.53Z" transform="translate(-50 -56.7)"/></g></svg>