<svg xmlns="http://www.w3.org/2000/svg" xmlns:xlink="http://www.w3.org/1999/xlink" viewBox="0 0 101 86.6"><defs><style>.cls-1{fill:#575e5e;}.cls-2{clip-path:url(#clip-path);}.cls-3{fill:#00b1e3;}.cls-4{fill:#fff;}</style><clipPath id="clip-path" transform="translate(-50 -56.7)"><polygon class="cls-1" points="75 56.7 50 100 75 143.3 125 143.3 150 100 125 56.7 75 56.7"/></clipPath></defs><g id="form"><polygon class="cls-1" points="25 0 0 43.3 25 86.6 75 86.6 100 43.3 75 0 25 0"/><g class="cls-2"><polygon class="cls-3" points="27.34 3.33 1.27 48.48 14.58 78.49 74.93 78.49 101 33.34 82.58 3.33 27.34 3.33"/></g></g><g id="textSetter"><path class="cls-4" d="M100.43,93.44H92.16v28.49H84.52V93.44H76.24V87.8h24.19Z" transform="translate(-50 -56.7)"/><path class="cls-4" d="M107.54,114.38a3.48,3.48,0,0,0,3.82,3.73,4.4,4.4,0,0,0,2.71-.77,2.69,2.69,0,0,0,1-2.29,2.29,2.29,0,0,0-.79-1.89,6.43,6.43,0,0,0-1.86-1l-5.14-1.67a10,10,0,0,1-4.57-2.7,6.56,6.56,0,0,1-1.54-4.47,7.74,7.74,0,0,1,.59-3,6.29,6.29,0,0,1,1.86-2.46,9.34,9.34,0,0,1,3.26-1.67,16,16,0,0,1,4.8-.62c3.32,0,5.78.63,7.37,1.91a6.49,6.49,0,0,1,2.39,5.4v1h-6.58a4.89,4.89,0,0,0-.71-2.94,3,3,0,0,0-2.52-.93,4.27,4.27,0,0,0-2.42.69,2.34,2.34,0,0,0-1,2.08,2.56,2.56,0,0,0,.66,1.72,5.22,5.22,0,0,0,2.52,1.29l4.4,1.34a10.2,10.2,0,0,1,4.89,2.75,7,7,0,0,1,1.43,4.61,7.51,7.51,0,0,1-.8,3.56,7.16,7.16,0,0,1-2.2,2.51,9,9,0,0,1-3.34,1.43,19.52,19.52,0,0,1-4.27.44,21,21,0,0,1-5.12-.53,7.8,7.8,0,0,1-3.24-1.58,5.64,5.64,0,0,1-1.67-2.56,11,11,0,0,1-.48-3.37v-.9h6.58Z" transform="translate(-50 -56.7)"/><path class="cls-4" d="M76.26,72.81h9.59v1.62H82.08v9H80v-9H76.26Z" transform="translate(-50 -56.7)"/><path class="cls-4" d="M87.11,72.81h2.47l2.68,3.77,2.8-3.77h2.32L93.47,78l4.2,5.53H95.15l-3-4.08-3,4.08H86.82L91,78Z" transform="translate(-50 -56.7)"/><path class="cls-4" d="M98.66,72.81h9.58v1.62h-3.76v9h-2.07v-9H98.66Z" transform="translate(-50 -56.7)"/></g></svg>