<svg id="Ebene_1" data-name="Ebene 1" xmlns="http://www.w3.org/2000/svg" xmlns:xlink="http://www.w3.org/1999/xlink"
     viewBox="0 0 32.83 60.53">
    <defs>
        <style>.cls-1{fill:none;}.cls-2{fill:#00000;}.cls-3{clip-path:url(#clip-path);}</style>
        <clipPath id="clip-path"
                  >
        </clipPath>
    </defs>
    <g class="cls-3">
        <path class="cls-2"
              d="M115.39,103.58a1.14,1.14,0,0,0-1,.52h-2.88l-1.48,6.35a1.55,1.55,0,0,0-.32,0H85a1.41,1.41,0,0,0-1.15.54,1,1,0,0,0,.11,1.16l6.75,10.81a2.67,2.67,0,0,0,2.18,1.17h14l-1,4.5H91.16a.54.54,0,0,0-.56.52.55.55,0,0,0,.56.53h18a.55.55,0,0,0,.56-.53.54.54,0,0,0-.56-.52H107l1-4.5h1.7a1.6,1.6,0,0,0,1.69-1.58V112a1.64,1.64,0,0,0-.34-1l1.36-5.85h2a1.16,1.16,0,0,0,1,.52,1.05,1.05,0,1,0,0-2.1m-8.74,30.73a1.58,1.58,0,1,0-1.69-1.58,1.64,1.64,0,0,0,1.69,1.58m-13,0a1.58,1.58,0,1,1,1.69-1.58,1.64,1.64,0,0,1-1.69,1.58"
              transform="translate(-83.68 -44.31)"/>

    </g>
</svg>