<svg id="Ebene_1" data-name="Ebene 1" xmlns="http://www.w3.org/2000/svg" xmlns:xlink="http://www.w3.org/1999/xlink" viewBox="0 0 32.83 110.53"><defs><style>.cls-1{fill:none;}.cls-2{fill:#00b1e3;}.cls-3{clip-path:url(#clip-path);}</style><clipPath id="clip-path" transform="translate(-83.68 -44.31)"><rect class="cls-1" x="83.68" y="44.31" width="32.83" height="110.53"/></clipPath></defs><rect class="cls-2" x="9.42" width="12" height="47.99"/><polygon class="cls-2" points="9.22 52.48 15.35 58.19 21.47 52.48 9.22 52.48"/><g class="cls-3"><path class="cls-2" d="M115.39,103.58a1.14,1.14,0,0,0-1,.52h-2.88l-1.48,6.35a1.55,1.55,0,0,0-.32,0H85a1.41,1.41,0,0,0-1.15.54,1,1,0,0,0,.11,1.16l6.75,10.81a2.67,2.67,0,0,0,2.18,1.17h14l-1,4.5H91.16a.54.54,0,0,0-.56.52.55.55,0,0,0,.56.53h18a.55.55,0,0,0,.56-.53.54.54,0,0,0-.56-.52H107l1-4.5h1.7a1.6,1.6,0,0,0,1.69-1.58V112a1.64,1.64,0,0,0-.34-1l1.36-5.85h2a1.16,1.16,0,0,0,1,.52,1.05,1.05,0,1,0,0-2.1m-8.74,30.73a1.58,1.58,0,1,0-1.69-1.58,1.64,1.64,0,0,0,1.69,1.58m-13,0a1.58,1.58,0,1,1,1.69-1.58,1.64,1.64,0,0,1-1.69,1.58" transform="translate(-83.68 -44.31)"/><path class="cls-2" d="M107.8,143.31h-2.94l3.65,7.29v4.09h2.79V150.6l3.66-7.29h-3l-2.09,4.94Zm-6.51,0v7.43a2.19,2.19,0,0,1-.44,1.52,1.65,1.65,0,0,1-1.29.47c-1.12,0-1.7-.62-1.73-1.86v-7.56H95.07v7.5a3.83,3.83,0,0,0,1.22,2.95,4.71,4.71,0,0,0,3.27,1.08,5.46,5.46,0,0,0,2.38-.48,3.43,3.43,0,0,0,1.55-1.41,4.28,4.28,0,0,0,.54-2.19v-7.45Zm-13.76,2.11h1.34a2.24,2.24,0,0,1,1.34.32,1.22,1.22,0,0,1,.41,1,1.14,1.14,0,0,1-.38.94,2,2,0,0,1-1.28.33H87.53Zm1.92,4.43a1.26,1.26,0,0,1,1.42,1.43,1.22,1.22,0,0,1-.4,1,1.76,1.76,0,0,1-1.14.34h-1.8v-2.73Zm0,4.84a5,5,0,0,0,3.13-.86,3,3,0,0,0,1.06-2.51,2.5,2.5,0,0,0-.48-1.56,2.38,2.38,0,0,0-1.36-.88A2.37,2.37,0,0,0,93,148a2.73,2.73,0,0,0,.41-1.51,2.65,2.65,0,0,0-1.15-2.33,5.74,5.74,0,0,0-3.34-.81H84.79v11.38Z" transform="translate(-83.68 -44.31)"/></g></svg>