<?xml version="1.0" encoding="utf-8"?>
<!-- Generator: Adobe Illustrator 26.0.3, SVG Export Plug-In . SVG Version: 6.00 Build 0)  -->
<svg version="1.1" id="Ebene_1" xmlns="http://www.w3.org/2000/svg" xmlns:xlink="http://www.w3.org/1999/xlink" x="0px" y="0px"
	 viewBox="0 0 32.8 30.7" style="enable-background:new 0 0 32.8 30.7;" xml:space="preserve">
<style type="text/css">
	.st0{clip-path:url(#SVGID_00000005981672505718228620000010553634173992897934_);}
	.st1{fill:#000000;}
</style>
<g>
	<g>
		<defs>
			<rect id="SVGID_1_" y="-59.3" width="32.8" height="110.5"/>
		</defs>
		<clipPath id="SVGID_00000053523060281103285040000013418476178746578109_">
			<use xlink:href="#SVGID_1_"  style="overflow:visible;"/>
		</clipPath>
		<g style="clip-path:url(#SVGID_00000053523060281103285040000013418476178746578109_);">
			<path class="st1" d="M31.7,0c-0.4,0-0.8,0.2-1,0.5h-2.9l-1.5,6.4c-0.1,0-0.2,0-0.3,0H1.3c-0.4,0-0.9,0.2-1.2,0.5
				C0,7.8,0,8.2,0.3,8.5L7,19.3c0.5,0.7,1.3,1.2,2.2,1.2h14l-1,4.5H7.5c-0.3,0-0.5,0.2-0.6,0.5l0,0c0,0.3,0.3,0.5,0.6,0.5h18
				c0.3,0,0.5-0.2,0.6-0.5c0-0.3-0.3-0.5-0.6-0.5l0,0h-2.2l1-4.5H26c0.9,0,1.6-0.6,1.7-1.5c0,0,0,0,0-0.1V8.4c0-0.4-0.1-0.7-0.3-1
				l1.4-5.9h2C31,1.8,31.4,2,31.8,2c0.6,0,1.1-0.5,1.1-1C32.8,0.4,32.3,0,31.7,0L31.7,0 M23,30.7c0.9-0.1,1.5-0.8,1.5-1.7
				c-0.1-0.9-0.8-1.5-1.7-1.5c-0.8,0.1-1.5,0.7-1.5,1.6S22.1,30.7,23,30.7 M10,30.7c-0.9-0.1-1.5-0.8-1.5-1.7
				c0.1-0.9,0.8-1.5,1.7-1.5c0.8,0.1,1.5,0.7,1.5,1.6C11.6,30,10.9,30.7,10,30.7"/>
		</g>
	</g>
</g>
</svg>
