<svg xmlns="http://www.w3.org/2000/svg" xmlns:xlink="http://www.w3.org/1999/xlink" viewBox="0 0 101 86.6"><defs><style>.cls-1{fill:#00f320;}.cls-2{clip-path:url(#clip-path);}.cls-3{fill:#00b1e3;}.cls-4{fill:#fff;}</style><clipPath id="clip-path" transform="translate(-50 -56.7)"><polygon class="cls-1" points="75 56.7 50 100 75 143.3 125 143.3 150 100 125 56.7 75 56.7"/></clipPath></defs><g id="form"><polygon class="cls-1" points="25 0 0 43.3 25 86.6 75 86.6 100 43.3 75 0 25 0"/><g class="cls-2"><polygon class="cls-3" points="27.34 3.33 1.27 48.48 14.58 78.49 74.93 78.49 101 33.34 82.58 3.33 27.34 3.33"/></g></g><g id="grepLexicon"><path class="cls-4" d="M76.7,87.8h7.64v28.49H97.86v5.64H76.7Z" transform="translate(-50 -56.7)"/><path class="cls-4" d="M123.75,96.21l-7.42,12.48,7.74,13.24h-7.64l-4.24-8.41-4.25,8.41h-7.63l7.74-13.24-7.43-12.48h7.64l3.93,7.75,3.93-7.75Z" transform="translate(-50 -56.7)"/><path class="cls-4" d="M87.72,83.48H86.39l-.31-1.26a5,5,0,0,1-1.66,1.18,5.13,5.13,0,0,1-1.91.33,6.23,6.23,0,0,1-2.38-.44,5.18,5.18,0,0,1-1.78-1.2,5.38,5.38,0,0,1-1.12-1.78,6,6,0,0,1-.39-2.16A5.9,5.9,0,0,1,77.23,76a5.2,5.2,0,0,1,2.9-3,6,6,0,0,1,2.38-.45,7.28,7.28,0,0,1,1.83.23,5.14,5.14,0,0,1,1.56.69A3.93,3.93,0,0,1,87,74.62a3.79,3.79,0,0,1,.57,1.58h-2a2.14,2.14,0,0,0-.35-.91,2.45,2.45,0,0,0-.69-.67,3.23,3.23,0,0,0-.93-.4,4.2,4.2,0,0,0-1.08-.14,3.59,3.59,0,0,0-1.63.35,3.07,3.07,0,0,0-1.12.92,3.85,3.85,0,0,0-.64,1.3,5.69,5.69,0,0,0,0,3A4,4,0,0,0,79.76,81a3,3,0,0,0,1.12.91,3.59,3.59,0,0,0,1.63.35A4.12,4.12,0,0,0,83.92,82a2.84,2.84,0,0,0,1-.58,2.54,2.54,0,0,0,.64-.93,3.69,3.69,0,0,0,.23-1.23H82.68V77.86h5Z" transform="translate(-50 -56.7)"/><path class="cls-4" d="M90,72.81h5.66a4.7,4.7,0,0,1,2.93.77,2.53,2.53,0,0,1,1,2.12,2.66,2.66,0,0,1-.83,2.06,2.25,2.25,0,0,1-.65.45l-.48.17v0a2.37,2.37,0,0,1,.58.15,1.83,1.83,0,0,1,.57.38,2.42,2.42,0,0,1,.44.68,2.88,2.88,0,0,1,.17,1,8.15,8.15,0,0,0,.16,1.71,2.13,2.13,0,0,0,.49,1.1H97.77a1.6,1.6,0,0,1-.28-.76,7.57,7.57,0,0,1,0-.81,6.56,6.56,0,0,0-.1-1.26,2,2,0,0,0-.36-.88,1.53,1.53,0,0,0-.72-.52,3.55,3.55,0,0,0-1.17-.16h-3v4.39H90Zm2.08,4.86h3.39A2.27,2.27,0,0,0,97,77.24,1.54,1.54,0,0,0,97.47,76a1.78,1.78,0,0,0-.17-.82,1.22,1.22,0,0,0-.45-.5,1.85,1.85,0,0,0-.67-.24,4.81,4.81,0,0,0-.77-.06H92.05Z" transform="translate(-50 -56.7)"/><path class="cls-4" d="M101.65,72.81h8.52v1.62h-6.45v2.79h6v1.52h-6v3.12h6.56v1.62h-8.63Z" transform="translate(-50 -56.7)"/><path class="cls-4" d="M112.09,72.81h5.22a5.45,5.45,0,0,1,2.06.33,3.15,3.15,0,0,1,1.22.82,2.62,2.62,0,0,1,.59,1.08,4,4,0,0,1,.16,1.07,3.86,3.86,0,0,1-.16,1.07,2.58,2.58,0,0,1-.59,1.07,3,3,0,0,1-1.22.81,5.45,5.45,0,0,1-2.06.33h-3.15v4.09h-2.07Zm2.07,5h3a2.94,2.94,0,0,0,.71-.09,2,2,0,0,0,.67-.29,1.45,1.45,0,0,0,.5-.54,1.63,1.63,0,0,0,.19-.84,2,2,0,0,0-.17-.87,1.4,1.4,0,0,0-.44-.54,1.65,1.65,0,0,0-.65-.28,3.84,3.84,0,0,0-.78-.07h-3.07Z" transform="translate(-50 -56.7)"/></g></svg>