<svg xmlns="http://www.w3.org/2000/svg" xmlns:xlink="http://www.w3.org/1999/xlink" viewBox="0 0 101 86.6"><defs><style>.cls-1{fill:#ff14c9;}.cls-2{clip-path:url(#clip-path);}.cls-3{fill:#00b1e3;}.cls-4{fill:#fff;}</style><clipPath id="clip-path" transform="translate(-50 -56.7)"><polygon class="cls-1" points="75 56.7 50 100 75 143.3 125 143.3 150 100 125 56.7 75 56.7"/></clipPath></defs><g id="form"><polygon class="cls-1" points="25 0 0 43.3 25 86.6 75 86.6 100 43.3 75 0 25 0"/><g class="cls-2"><polygon class="cls-3" points="27.34 3.33 1.27 48.48 14.58 78.49 74.93 78.49 101 33.34 82.58 3.33 27.34 3.33"/></g></g><g id="layoutMover"><path class="cls-4" d="M77.38,87.8H85v28.49H98.54v5.64H77.38Z" transform="translate(-50 -56.7)"/><path class="cls-4" d="M103.64,125.42a3.75,3.75,0,0,0,2.89-1,4.25,4.25,0,0,0,1-2.53l-8-25.72h7.64L111.44,114h.1l3.72-17.79h7.32l-6.9,24a46.68,46.68,0,0,1-1.83,5.18,8.64,8.64,0,0,1-2.07,3.06,5.85,5.85,0,0,1-2.86,1.41,21.5,21.5,0,0,1-4.22.34h-3v-4.93A12.29,12.29,0,0,0,103.64,125.42Z" transform="translate(-50 -56.7)"/><path class="cls-4" d="M77.39,72.81H82.3a6,6,0,0,1,2.35.42,4.43,4.43,0,0,1,1.63,1.14,4.69,4.69,0,0,1,.93,1.7,7.1,7.1,0,0,1,0,4.15,4.69,4.69,0,0,1-.93,1.7,4.43,4.43,0,0,1-1.63,1.14,6,6,0,0,1-2.35.42H77.39ZM79.46,82h2a5.52,5.52,0,0,0,2-.29,2.69,2.69,0,0,0,1.81-2,7.16,7.16,0,0,0,0-3,2.69,2.69,0,0,0-1.81-2,5.52,5.52,0,0,0-2-.29h-2Z" transform="translate(-50 -56.7)"/><path class="cls-4" d="M94.4,72.56a6,6,0,0,1,2.38.45,5.2,5.2,0,0,1,2.9,3,5.9,5.9,0,0,1,.39,2.15,6,6,0,0,1-.39,2.16,5.22,5.22,0,0,1-1.12,1.78,5.09,5.09,0,0,1-1.78,1.2,6.66,6.66,0,0,1-4.76,0,5.14,5.14,0,0,1-2.9-3,6,6,0,0,1-.39-2.16A5.9,5.9,0,0,1,89.12,76a5.22,5.22,0,0,1,1.12-1.78A5.35,5.35,0,0,1,92,73,6,6,0,0,1,94.4,72.56Zm0,1.52a3.59,3.59,0,0,0-1.63.35,3.07,3.07,0,0,0-1.12.92,3.85,3.85,0,0,0-.64,1.3,5.43,5.43,0,0,0,0,3A4,4,0,0,0,91.65,81a3,3,0,0,0,1.12.91,4,4,0,0,0,3.26,0A3,3,0,0,0,97.15,81a4,4,0,0,0,.64-1.31,5.43,5.43,0,0,0,0-3,3.85,3.85,0,0,0-.64-1.3A3.07,3.07,0,0,0,96,74.43,3.59,3.59,0,0,0,94.4,74.08Z" transform="translate(-50 -56.7)"/><path class="cls-4" d="M110,76.2a4,4,0,0,0-.36-.85,2.56,2.56,0,0,0-.6-.67,2.64,2.64,0,0,0-.85-.44,3.92,3.92,0,0,0-1.14-.16,3.59,3.59,0,0,0-1.63.35,3.07,3.07,0,0,0-1.12.92,3.85,3.85,0,0,0-.64,1.3,5.43,5.43,0,0,0,0,3,4,4,0,0,0,.64,1.31,3,3,0,0,0,1.12.91,3.59,3.59,0,0,0,1.63.35,3.17,3.17,0,0,0,1.23-.22,2.67,2.67,0,0,0,.91-.6,3,3,0,0,0,.6-.88,4.36,4.36,0,0,0,.28-1.09h2a4.53,4.53,0,0,1-.46,1.74,4.29,4.29,0,0,1-1,1.37,4.78,4.78,0,0,1-1.56.89,5.86,5.86,0,0,1-2,.31,6.19,6.19,0,0,1-2.38-.44,5.14,5.14,0,0,1-2.9-3,6,6,0,0,1-.39-2.16,5.9,5.9,0,0,1,.39-2.15,5.22,5.22,0,0,1,1.12-1.78A5.35,5.35,0,0,1,104.62,73a6,6,0,0,1,2.38-.45,6.65,6.65,0,0,1,1.87.25,4.9,4.9,0,0,1,1.55.71,4,4,0,0,1,1.09,1.15A3.52,3.52,0,0,1,112,76.2Z" transform="translate(-50 -56.7)"/></g></svg>