<svg id="Ebene_1" data-name="Ebene 1" xmlns="http://www.w3.org/2000/svg" xmlns:xlink="http://www.w3.org/1999/xlink" viewBox="0 0 156.76 57.29"><defs><style>.cls-1{fill:none;}.cls-2{clip-path:url(#clip-path);}.cls-3{fill:#181715;}</style><clipPath id="clip-path" transform="translate(-21.62 -71.35)"><rect class="cls-1" x="21.62" y="71.35" width="156.76" height="57.29"/></clipPath></defs><g class="cls-2"><path class="cls-3" d="M152.11,105.41v1.26c0,6.8,2.84,11.28,13.07,11.28,7.66,0,13.2-3.69,13.2-11.15,0-5.35-2.11-8.25-7.85-10.17l-5.48-1.84c-3-1-4-2.45-4-4.16,0-2.51,2-3.83,4.29-3.83,3,0,4,1.78,4,5.35h8.19V90.69c0-6.4-3.9-10.09-12.15-10.09-9.37,0-13.07,4.81-13.07,10.69,0,5,2.58,8.12,7.59,9.9l6.41,2.31c1.78.66,3.3,1.71,3.3,4,0,2.84-1.85,4.23-4.62,4.23-3.11,0-4.76-2-4.76-5.15v-1.19ZM135.74,81.52h-4.62v6.2h4.62v20.33c0,7.2,1.32,9.38,8.45,9.38a56.75,56.75,0,0,0,5.94-.4v-6.34a17.7,17.7,0,0,1-2,.14c-2.64,0-3.23-1.13-3.23-3.9V87.72h5.28v-6.2h-5.28V71.35h-9.11Zm-33.66,47.13h9.11V113.73h.13A8.51,8.51,0,0,0,119,118c7.46,0,10.89-5.47,10.89-18.68S126.44,80.6,119,80.6a8.61,8.61,0,0,0-8.06,4.68h-.13V81.52h-8.71Zm9.11-29.38c0-7.72.79-11.68,4.82-11.68s4.75,4,4.75,11.68S120,111,116,111s-4.82-4-4.82-11.69M80.1,117h9.11V95.71c0-4.75,3.56-6.4,6.73-6.4.93,0,1.92.06,2.84.13V80.73a13.1,13.1,0,0,0-1.65-.13c-3.76,0-6.34,2.24-8.19,5.67h-.13V81.52H80.1ZM76,94.32c0-8.38-4.36-13.72-12.74-13.72S48.88,84.69,48.88,99.27c0,14.26,4.49,18.68,13.6,18.68C72.11,118,76,112.74,76,103.43H67.3c0,5.74-1.39,8.32-4.43,8.32-4.09,0-4.88-3.63-4.88-12.41,0-8.18.73-12.14,5.21-12.14,3.44,0,4.1,3.69,4.1,7.12ZM21.62,117h25v-7.39H32.38L46.57,88.52v-7H22.28v7.39H35.81L21.62,110Z" transform="translate(-21.62 -71.35)"/></g></svg>